<svg xmlns="http://www.w3.org/2000/svg" viewBox="0 0 400 300" width="100%" height="100%" fill="none">
  <!-- Background glow -->
  <circle cx="200" cy="150" r="110" fill="#F1F5F9"/>
  <circle cx="110" cy="110" r="35" fill="#E2E8F0" opacity="0.5"/>
  <circle cx="290" cy="190" r="40" fill="#E2E8F0" opacity="0.4"/>

  <!-- Accents -->
  <circle cx="80" cy="80" r="6" fill="#FE774C"/>
  <circle cx="320" cy="80" r="7" fill="#66A7F2"/>
  <path d="M90 200 L94 210 L104 214 L94 218 L90 228 L86 218 L76 214 L86 210 Z" fill="#5DD299" opacity="0.8"/>
  <circle cx="330" cy="180" r="5" fill="#FFC152"/>

  <!-- Base line -->
  <path d="M70 240 L330 240" stroke="#CBD5E1" stroke-width="6" stroke-linecap="round"/>

  <!-- Big 404 Numbers behind graphic -->
  <text x="75" y="160" font-family="Plus Jakarta Sans, sans-serif" font-weight="900" font-size="82" fill="#E2E8F0" letter-spacing="-4">4</text>
  <text x="260" y="160" font-family="Plus Jakarta Sans, sans-serif" font-weight="900" font-size="82" fill="#E2E8F0" letter-spacing="-4">4</text>

  <!-- Center Map / Broken Link Icon -->
  <rect x="145" y="95" width="110" height="135" rx="16" fill="#FFFFFF" stroke="#E2E8F0" stroke-width="2"/>
  <rect x="145" y="95" width="110" height="36" rx="16" fill="#1E1E26"/>
  <rect x="145" y="115" width="110" height="16" fill="#1E1E26"/>

  <!-- Compass / Telescope icon inside -->
  <circle cx="200" cy="165" r="28" fill="#F8FAFC" stroke="#E2E8F0" stroke-width="2"/>
  <path d="M190 175 L205 155 L210 165 Z" fill="#FE774C"/>
  <path d="M190 175 L200 170 L210 165 Z" fill="#1E1E26"/>
  <circle cx="200" cy="165" r="3" fill="#FFFFFF"/>

  <!-- Question mark pin bubble -->
  <circle cx="238" cy="115" r="16" fill="#FE774C" stroke="#FFFFFF" stroke-width="3"/>
  <text x="233" y="121" font-family="Plus Jakarta Sans, sans-serif" font-weight="800" font-size="16" fill="#FFFFFF">?</text>
</svg>
